# xmcd CD database file generated by LOLA_Freedb v0.9beta0
# 
# Track frame offsets:
#      150
#      10235
#      23966
#      42701
#      57042
#      74500
#      92295
#      103728
#      125731
#      144264
#      155845
# 
# Disc length: 2363 seconds
# 
# Revision: 0 
# Processed by: cddbd v1.5.2PL0 Copyright (c) Steve Scherf et al.
# Submitted via: LOLA_Freedb v0.9beta0
# 
DISCID=9709390b
DTITLE=Mary Chapin Carpenter - State Of The Heart
DYEAR=1900
DGENRE=
TTITLE0=Mary Chapin Carpenter - How Do
TTITLE1=Mary Chapin Carpenter - Something Of A Dreamer
TTITLE2=Mary Chapin Carpenter - Never Had So Good
TTITLE3=Mary Chapin Carpenter - Read My Lips
TTITLE4=Mary Chapin Carpenter - This ShirtMary Chapin Carpenter
TTITLE5=Mary Chapin Carpenter - Quittin' Time
TTITLE6=Mary Chapin Carpenter - Down In Mary's Land
TTITLE7=Mary Chapin Carpenter - Goodbye Again
TTITLE8=Mary Chapin Carpenter - Too Tired
TTITLE9=Mary Chapin Carpenter - Slow Country Dance
TTITLE10=Mary Chapin Carpenter - It Don't Bring You
EXTD=
EXTT0=
EXTT1=
EXTT2=
EXTT3=
EXTT4=
EXTT5=
EXTT6=
EXTT7=
EXTT8=
EXTT9=
EXTT10=
PLAYORDER=
